<?xml version="1.0" standalone="no"?><svg xmlns="http://www.w3.org/2000/svg" viewBox="0 0 1440 320"><path fill="#949868" fill-opacity="1" d="M0,128L10.4,154.7C20.9,181,42,235,63,256C83.5,277,104,267,125,234.7C146.1,203,167,149,188,128C208.7,107,230,117,250,112C271.3,107,292,85,313,85.3C333.9,85,355,107,376,117.3C396.5,128,417,128,438,112C459.1,96,480,64,501,53.3C521.7,43,543,53,563,74.7C584.3,96,605,128,626,138.7C647,149,668,139,689,133.3C709.6,128,730,128,751,128C772.2,128,793,128,814,128C834.8,128,856,128,877,112C897.4,96,918,64,939,80C960,96,981,160,1002,186.7C1022.6,213,1043,203,1064,176C1085.2,149,1106,107,1127,112C1147.8,117,1169,171,1190,181.3C1210.4,192,1231,160,1252,170.7C1273,181,1294,235,1315,229.3C1335.7,224,1357,160,1377,128C1398.3,96,1419,96,1430,96L1440,96L1440,320L1429.6,320C1419.1,320,1398,320,1377,320C1356.5,320,1336,320,1315,320C1293.9,320,1273,320,1252,320C1231.3,320,1210,320,1190,320C1168.7,320,1148,320,1127,320C1106.1,320,1085,320,1064,320C1043.5,320,1023,320,1002,320C980.9,320,960,320,939,320C918.3,320,897,320,877,320C855.7,320,835,320,814,320C793,320,772,320,751,320C730.4,320,710,320,689,320C667.8,320,647,320,626,320C605.2,320,584,320,563,320C542.6,320,522,320,501,320C480,320,459,320,438,320C417.4,320,397,320,376,320C354.8,320,334,320,313,320C292.2,320,271,320,250,320C229.6,320,209,320,188,320C167,320,146,320,125,320C104.3,320,83,320,63,320C41.7,320,21,320,10,320L0,320Z"></path></svg>