<?xml version="1.0" standalone="no"?><svg xmlns="http://www.w3.org/2000/svg" viewBox="0 0 1440 320"><path fill="#ffd700" fill-opacity="1" d="M0,320L0,288L102.9,288L102.9,256L205.7,256L205.7,96L308.6,96L308.6,288L411.4,288L411.4,96L514.3,96L514.3,96L617.1,96L617.1,128L720,128L720,128L822.9,128L822.9,192L925.7,192L925.7,160L1028.6,160L1028.6,288L1131.4,288L1131.4,64L1234.3,64L1234.3,64L1337.1,64L1337.1,288L1440,288L1440,320L1337.1,320L1337.1,320L1234.3,320L1234.3,320L1131.4,320L1131.4,320L1028.6,320L1028.6,320L925.7,320L925.7,320L822.9,320L822.9,320L720,320L720,320L617.1,320L617.1,320L514.3,320L514.3,320L411.4,320L411.4,320L308.6,320L308.6,320L205.7,320L205.7,320L102.9,320L102.9,320L0,320L0,320Z"></path></svg>